<svg aria-hidden="true" style="position: absolute; width: 0; height: 0; overflow: hidden;" version="1.1" xmlns="http://www.w3.org/2000/svg" xmlns:xlink="http://www.w3.org/1999/xlink">
<defs>

<symbol width="auto" viewBox="0 0 654 193">
  <path id="full-logo"
        fill="black" stroke="black" stroke-width="1"
        d="M 502.04,69.96
           C 492.94,74.97 498.70,83.51 504.96,81.24
             511.66,78.81 511.04,69.07 502.04,69.96 Z
           M 394.00,69.98
           C 384.20,73.11 388.68,82.50 394.99,81.55
             402.07,80.49 403.44,70.39 394.00,69.98 Z
           M 448.00,101.01
           C 442.07,89.27 432.42,95.87 424.00,101.01
             422.90,96.07 418.74,91.90 414.93,97.23
             412.70,100.36 411.44,110.44 410.15,114.58
             409.09,117.99 405.09,123.28 402.70,125.98
             400.81,128.13 395.33,133.78 392.15,131.13
             389.84,129.20 390.54,125.54 391.00,123.00
             391.00,123.00 394.86,103.00 394.86,103.00
             395.47,99.56 394.91,94.50 390.05,95.20
             384.36,96.03 383.58,110.35 382.01,115.00
             377.85,127.38 354.34,137.94 343.09,129.35
             335.53,123.58 335.64,114.62 342.11,108.10
             344.65,105.55 348.19,102.90 351.98,104.11
             359.13,106.39 355.62,111.36 354.97,115.98
             354.64,118.35 355.16,121.05 358.12,121.00
             366.48,120.87 372.08,103.86 361.90,97.22
             352.00,90.78 337.53,94.63 331.06,104.00
             326.64,110.39 328.04,113.74 322.67,119.96
             316.37,127.26 303.59,132.89 294.00,133.67
             278.33,134.95 271.89,113.47 286.04,105.41
             294.76,100.45 301.40,106.64 299.84,110.95
             297.81,116.54 292.18,114.64 288.06,116.04
             285.97,116.75 284.13,118.42 285.17,120.80
             286.58,124.04 292.06,124.76 295.17,124.66
             303.51,124.39 311.14,119.96 311.89,111.00
             313.58,91.07 283.87,89.40 272.39,104.00
             265.55,112.70 265.38,128.90 274.21,136.37
             280.07,141.33 285.69,142.05 293.00,142.00
             311.75,141.87 314.76,133.99 328.00,127.00
             329.15,129.99 330.11,132.45 332.34,134.87
             334.82,137.56 337.67,138.71 341.00,139.98
             356.07,145.76 366.26,138.52 379.00,132.00
             379.48,133.85 379.74,135.24 380.85,136.90
             384.78,142.75 392.17,142.75 397.96,139.96
             397.96,139.96 406.00,135.00 406.00,135.00
             406.51,141.36 410.79,143.16 414.30,138.84
             418.54,133.61 416.96,119.23 424.39,110.02
             426.56,107.33 431.06,103.10 434.71,105.69
             437.48,107.65 437.12,111.10 436.61,114.00
             436.61,114.00 433.17,132.00 433.17,132.00
             432.88,135.15 433.06,141.42 437.98,140.26
             441.80,139.35 442.51,135.01 443.35,131.83
             445.60,123.33 445.68,117.24 451.68,110.09
             453.46,107.97 456.85,104.70 459.89,105.15
             464.50,105.84 463.81,111.78 463.19,115.00
             461.70,122.69 456.94,133.33 464.21,139.57
             466.65,141.66 468.92,141.98 472.00,141.52
             473.93,141.23 477.24,140.28 479.00,139.44
             479.00,139.44 489.00,133.00 489.00,133.00
             489.41,134.92 489.52,136.12 490.74,137.81
             494.69,143.30 502.85,142.58 508.00,139.28
             513.27,135.89 514.29,132.17 521.00,129.00
             524.73,143.99 545.18,143.74 557.00,139.79
             560.14,138.75 567.42,134.94 570.00,134.92
             575.12,134.88 575.56,140.29 585.00,141.70
             600.60,144.04 616.94,139.31 627.47,127.16
             631.21,122.86 633.35,119.74 634.00,114.00
             627.18,115.10 626.50,118.17 621.83,122.57
             617.26,126.89 614.69,128.53 609.00,131.00
             609.00,118.90 609.72,120.63 603.75,110.00
             602.12,107.10 600.60,104.34 602.63,101.18
             604.11,98.90 609.84,95.87 607.72,92.56
             604.55,87.61 593.87,94.32 591.17,97.09
             579.26,109.30 576.52,122.48 559.00,130.13
             554.77,131.97 550.35,133.19 545.73,133.40
             537.48,133.76 529.71,128.73 528.98,120.00
             528.33,112.27 536.92,102.32 545.00,103.62
             546.26,103.83 547.78,104.38 548.86,105.09
             550.43,106.12 551.82,107.73 551.79,109.72
             551.73,115.28 543.65,115.36 540.04,116.11
             538.58,116.41 537.07,116.78 536.40,118.30
             534.29,123.07 542.76,124.75 545.83,124.76
             554.49,124.78 561.34,119.80 562.66,111.00
             565.35,93.06 541.04,91.26 530.00,98.14
             518.46,105.34 521.27,112.83 514.70,122.00
             512.48,125.10 506.68,132.57 502.23,131.27
             499.24,130.40 499.29,126.75 499.61,124.28
             499.61,124.28 503.83,103.00 503.83,103.00
             504.10,99.67 503.00,93.58 498.13,95.40
             494.36,96.81 494.08,102.66 493.26,106.00
             491.08,114.90 489.63,119.19 482.96,125.98
             480.83,128.16 475.86,133.35 472.60,130.36
             470.65,128.57 471.39,125.26 471.80,123.00
             472.62,118.51 474.85,110.13 474.47,106.00
             474.35,104.66 473.86,102.29 473.39,101.01
             468.81,88.80 455.23,96.84 448.00,101.01 Z
           M 594.00,109.00
           C 595.33,113.71 599.65,121.80 599.71,126.00
             599.81,133.28 590.73,135.66 586.23,132.26
             577.96,126.03 588.56,113.09 594.00,109.00 Z
           M 609.00,131.00
           C 609.00,131.00 609.00,132.00 609.00,132.00
             609.00,132.00 608.00,131.00 608.00,131.00
             608.00,131.00 609.00,131.00 609.00,131.00 Z
           M 214.72,69.60
           C 209.24,70.69 202.30,73.16 198.32,77.21
             191.63,84.03 190.08,93.17 193.04,102.00
             193.95,104.71 195.17,107.62 197.34,109.57
             200.85,112.73 206.65,112.70 207.38,107.94
             208.03,103.75 203.56,99.56 202.93,94.27
             201.68,83.59 214.50,79.10 223.00,79.00
             230.50,78.92 239.12,79.06 244.47,85.19
             252.47,94.35 244.57,108.87 233.18,109.90
             224.73,110.67 232.19,97.73 231.78,90.84
             231.58,87.52 229.85,84.68 226.09,85.49
             219.50,86.90 220.02,102.67 216.28,107.89
             213.46,111.83 208.87,112.13 208.86,116.05
             208.85,120.10 214.30,122.70 212.68,126.94
             210.17,133.51 203.09,127.84 199.60,130.89
             196.84,133.30 198.79,137.56 201.14,139.44
             206.34,143.57 216.00,141.64 220.06,136.79
             222.68,133.65 223.10,130.57 224.63,127.00
             226.17,123.40 229.29,119.13 233.90,120.74
             237.75,122.10 239.06,132.94 240.53,137.00
             244.79,148.72 250.18,155.40 263.00,157.49
             265.39,157.80 269.69,158.20 271.98,157.49
             276.41,156.34 277.80,152.42 274.77,149.69
             272.29,147.44 268.49,148.92 262.00,145.35
             254.54,141.25 251.90,134.70 249.71,127.00
             249.18,125.15 248.23,121.87 248.32,120.00
             248.53,115.40 254.10,111.06 256.75,107.00
             259.82,102.29 259.92,98.43 259.99,93.00
             260.30,67.71 233.35,67.52 214.72,69.60 Z
           M 62.00,25.00
           C 57.44,34.84 62.15,42.33 72.00,45.75
             86.20,50.68 103.83,46.45 117.00,54.97
             126.95,61.40 129.48,72.70 118.96,80.15
             113.56,83.98 108.20,83.89 102.00,85.00
             122.32,93.32 141.50,72.57 128.20,54.01
             120.20,42.86 103.67,41.15 91.00,41.00
             82.75,40.91 72.64,42.08 66.14,35.78
             62.06,31.83 63.64,29.49 62.00,25.00 Z
           M 116.00,65.00
           C 111.97,58.34 103.19,58.09 96.00,57.85
             96.00,57.85 75.00,57.85 75.00,57.85
             61.96,55.82 48.52,45.88 47.20,32.00
             46.58,25.58 50.36,20.50 53.00,15.00
             48.36,17.22 46.57,19.42 44.28,24.00
             37.96,36.63 44.60,52.47 56.00,59.67
             65.32,65.56 78.32,66.03 89.00,64.58
             93.43,63.97 106.43,61.57 110.00,62.30
             112.28,62.77 114.00,63.89 116.00,65.00 Z
           M 33.00,96.00
           C 32.93,98.01 33.10,100.79 31.40,102.23
             29.69,103.69 27.09,102.85 25.11,103.35
             20.56,104.49 20.27,109.22 21.00,113.00
             24.47,112.41 28.69,111.52 31.40,114.51
             33.03,116.31 32.95,118.74 33.00,121.00
             33.00,121.00 33.00,144.00 33.00,144.00
             33.10,165.62 46.58,171.97 66.00,172.00
             66.00,172.00 124.00,172.00 124.00,172.00
             130.30,171.92 139.66,170.46 144.91,166.87
             158.58,157.51 154.74,135.47 155.00,121.00
             155.16,112.32 159.28,111.15 167.00,113.00
             169.35,102.73 162.20,104.00 155.00,104.00
             155.00,104.00 155.00,96.00 155.00,96.00
             155.00,96.00 33.00,96.00 33.00,96.00 Z" />
</symbol>

<symbol id="logo" viewBox="0 0 553 135">
<path fill="#418a5d" stroke="#418a5d" stroke-width="1"
        d="M 384.02,13.69
           C 373.32,18.31 378.76,31.28 387.98,28.07
             394.87,25.67 395.95,12.21 384.02,13.69 Z
           M 256.02,13.62
           C 244.80,16.98 249.18,29.79 257.98,28.38
             266.72,26.97 267.93,13.28 256.02,13.62 Z
           M 320.00,51.00
           C 316.00,35.78 299.38,45.29 292.00,52.00
             291.77,49.76 291.93,47.11 290.39,45.30
             287.75,42.20 282.66,42.59 280.65,46.23
             280.65,46.23 275.62,67.00 275.62,67.00
             274.32,71.51 269.97,77.52 266.83,81.00
             264.49,83.58 259.05,89.16 255.15,88.19
             250.89,87.13 252.10,80.12 252.59,77.00
             252.59,77.00 257.49,53.00 257.49,53.00
             258.25,49.42 259.41,45.34 254.89,43.61
             247.03,40.61 246.43,50.18 245.26,55.00
             244.37,58.65 242.44,69.65 241.07,71.96
             236.08,80.34 216.91,89.45 207.00,88.89
             190.72,87.98 183.04,71.20 194.21,59.09
             196.55,56.56 200.47,53.75 204.00,53.44
             208.59,53.05 214.08,56.94 212.93,62.00
             212.53,63.76 204.42,75.51 214.02,75.13
             215.01,75.09 216.09,74.79 217.00,74.39
             226.51,70.27 228.49,55.83 221.45,48.53
             216.25,43.14 206.02,42.14 199.00,43.47
             190.25,45.12 183.10,51.00 179.33,59.00
             176.69,64.60 177.60,66.60 175.41,70.00
             168.54,80.65 151.48,88.69 139.00,89.68
             113.58,91.69 112.87,56.68 135.00,53.51
             139.49,52.86 147.14,55.56 147.14,61.00
             147.14,62.47 146.46,63.75 145.55,64.86
             139.69,72.07 128.91,64.43 126.66,71.14
             124.66,77.08 133.00,78.67 137.00,78.91
             149.55,79.64 160.88,72.71 159.95,59.00
             159.20,47.98 148.80,43.24 139.00,43.01
             130.00,42.81 121.89,44.97 115.30,51.44
             104.01,62.54 103.43,83.41 116.00,93.73
             120.29,97.24 126.53,99.28 132.00,99.83
             138.29,100.46 146.10,99.40 152.00,97.19
             156.91,95.34 161.75,93.17 166.00,90.07
             170.73,86.63 172.57,83.57 178.00,81.00
             182.03,97.88 203.30,102.59 218.00,97.91
             228.85,94.45 230.59,91.33 239.00,87.00
             239.21,89.19 239.31,90.96 240.31,93.00
             243.96,100.33 253.38,100.79 260.00,97.56
             263.69,95.77 267.00,92.75 270.00,90.00
             270.06,94.40 270.63,100.55 276.98,98.92
             282.41,97.53 282.59,90.51 283.73,86.00
             286.23,76.11 288.52,57.56 301.00,54.71
             307.20,53.29 308.40,59.33 307.49,64.00
             307.49,64.00 302.09,90.00 302.09,90.00
             301.87,93.43 301.85,97.65 306.06,98.51
             311.03,99.54 313.05,94.92 313.98,91.00
             316.73,79.48 317.53,66.69 327.04,58.21
             334.27,51.76 339.66,55.13 339.01,62.17
             338.05,72.52 327.47,96.07 344.00,99.14
             346.11,99.53 347.89,99.51 350.00,99.14
             352.45,98.72 354.84,97.87 357.00,96.64
             357.00,96.64 368.00,88.00 368.00,88.00
             369.21,99.32 379.92,102.29 389.00,97.43
             395.51,93.96 399.22,87.34 405.00,83.00
             411.30,101.98 434.26,102.50 450.00,96.68
             450.00,96.68 464.91,89.52 464.91,89.52
             469.01,89.35 468.69,94.83 477.00,98.05
             487.77,102.22 503.80,100.05 514.00,95.22
             523.43,90.75 530.72,84.64 536.65,76.00
             537.93,74.14 543.09,67.07 538.70,65.74
             535.46,64.77 532.25,69.94 530.54,72.00
             525.22,78.39 518.02,84.47 510.00,87.00
             512.54,72.80 509.47,71.63 503.01,60.00
             501.68,57.61 499.67,53.93 501.07,51.22
             503.08,47.35 512.40,47.19 510.21,41.22
             509.77,40.04 508.89,39.25 507.77,38.74
             501.06,35.64 492.30,43.44 488.29,48.00
             488.29,48.00 468.79,73.91 468.79,73.91
             462.26,80.96 452.32,86.29 443.00,88.50
             432.66,90.94 421.49,90.04 416.68,79.00
             412.19,68.68 419.57,56.68 430.00,53.79
             434.88,52.44 443.70,54.71 443.70,61.01
             443.70,62.77 442.80,64.36 441.59,65.58
             435.44,71.81 423.29,64.00 423.29,72.98
             423.29,78.68 432.89,79.15 437.00,78.91
             440.43,78.71 445.05,77.78 448.00,75.99
             455.91,71.22 459.19,58.78 453.49,51.04
             449.32,45.38 442.76,43.17 436.00,43.01
             423.78,42.73 413.08,46.79 406.90,58.00
             403.77,63.68 404.57,66.19 402.92,70.00
             400.72,75.09 390.45,89.37 384.11,88.13
             379.21,87.17 380.86,80.33 381.41,77.00
             381.41,77.00 386.38,52.00 386.38,52.00
             386.94,48.56 387.17,44.50 382.89,43.47
             375.27,41.65 375.03,51.14 373.87,56.00
             370.95,68.19 370.35,72.41 360.96,81.99
             358.98,84.01 354.97,88.02 352.02,88.18
             345.26,88.53 347.75,78.69 348.42,75.00
             350.04,66.13 355.61,53.51 347.87,46.23
             345.77,44.25 343.84,43.39 341.00,43.29
             339.22,42.93 336.75,43.12 335.00,43.29
             329.30,44.64 325.16,48.69 320.00,51.00 Z
           M 492.00,61.00
           C 493.64,64.49 499.03,75.87 499.60,79.00
             501.28,88.24 489.94,92.93 483.15,88.15
             474.12,81.79 486.28,65.50 492.00,61.00 Z
           M 61.00,62.00
           C 61.22,52.01 64.07,48.08 64.83,40.00
             65.16,36.48 65.16,32.45 60.94,31.47
             56.66,30.48 54.14,33.29 52.94,37.02
             52.94,37.02 47.57,59.85 47.57,59.85
             44.75,64.94 38.68,61.37 37.33,67.11
             35.50,74.92 49.31,75.21 41.39,84.74
             36.32,90.84 29.48,79.79 25.19,87.23
             23.23,90.62 25.41,94.26 28.11,96.43
             32.33,99.83 40.11,100.26 45.00,98.16
             51.87,95.22 53.61,89.49 55.65,83.00
             56.31,80.91 57.05,77.07 58.58,75.60
             60.42,73.83 66.92,73.75 70.00,73.00
             73.84,93.38 79.42,117.70 105.00,118.00
             109.17,118.05 116.63,119.06 118.16,113.94
             119.13,110.68 116.97,108.18 113.96,107.30
             112.36,106.83 106.81,106.52 102.00,104.75
             95.33,102.29 90.22,95.50 87.81,89.00
             86.75,86.14 83.07,72.49 83.77,70.09
             84.60,67.19 89.07,64.43 91.32,61.83
             95.93,56.50 97.91,51.98 98.00,45.00
             98.11,35.95 98.70,29.26 91.79,22.18
             84.53,14.75 71.94,13.05 62.00,13.00
             55.10,12.97 46.71,12.95 40.00,14.53
             27.05,17.56 18.14,27.78 17.18,41.00
             16.67,48.00 19.42,57.96 25.10,62.43
             31.65,67.58 37.75,62.89 36.53,57.00
             35.59,52.48 31.10,50.30 30.34,43.00
             29.21,32.20 38.42,26.34 48.00,25.09
             48.00,25.09 60.00,25.09 60.00,25.09
             66.30,25.01 74.02,25.77 78.90,30.22
             86.47,37.15 85.45,50.06 77.90,56.61
             72.90,60.94 67.34,61.94 61.00,62.00 Z"></path>
</symbol>


<symbol id= "logo-img" viewBox="0 0 400 400">
  <path id="Selection #1"
        fill="#418a5d" stroke="#418a5d" stroke-width="1"
        d="M 255.00,141.00
           C 256.81,134.58 252.46,129.76 247.00,127.00
             239.49,123.20 222.57,121.01 214.00,121.00
             179.69,120.95 145.48,125.65 115.98,103.79
             99.09,91.28 87.94,67.02 92.52,46.00
             93.55,41.25 96.24,35.30 98.54,31.00
             102.35,23.87 105.94,19.14 113.00,15.00
             105.61,13.69 95.30,22.81 90.80,28.09
             74.56,47.16 73.32,71.84 83.78,94.00
             103.31,135.37 146.30,144.92 188.00,138.08
             188.00,138.08 233.17,131.56 233.17,131.56
             238.39,131.32 247.67,131.61 251.59,135.43
             253.12,136.92 254.05,139.11 255.00,141.00 Z
           M 248.00,128.00 248.00,128.00 248.00,128.00 248.00,128.00
           M 210.00,184.00
           C 215.08,186.61 225.21,188.43 231.00,189.15
             231.00,189.15 239.96,190.66 239.96,190.66
             249.64,191.69 261.45,189.48 270.00,184.82
             298.92,169.04 303.29,131.96 281.83,108.00
             262.66,86.60 232.39,81.28 205.00,81.00
             184.62,80.80 164.32,83.36 145.00,75.25
             131.33,69.52 124.26,58.47 129.95,44.09
             131.30,40.70 133.96,38.00 136.00,35.00
             125.68,38.85 119.35,50.11 120.10,61.00
             121.10,75.63 135.70,88.71 149.00,92.84
             168.00,98.76 182.37,99.41 201.91,100.74
             220.91,102.04 241.46,103.52 258.00,114.05
             277.06,126.21 285.60,148.43 269.70,167.00
             266.90,170.27 263.70,173.29 260.00,175.52
             244.90,184.65 226.94,184.00 210.00,184.00 Z
           M 56.00,210.00
           C 56.00,210.00 56.00,228.00 56.00,228.00
             53.40,232.71 42.54,224.65 33.85,228.60
             29.83,230.42 25.27,243.16 25.50,249.93
             29.68,258.27 44.98,243.43 56.93,257.78
             56.93,257.78 56.00,298.00 56.00,298.00
             56.00,329.55 52.33,362.44 83.00,382.30
             87.51,385.22 93.86,388.39 99.00,389.96
             105.07,391.81 117.55,392.99 124.00,393.00
             124.00,393.00 282.00,393.00 282.00,393.00
             310.95,392.86 335.15,380.67 345.30,352.00
             347.76,345.04 348.99,332.46 349.00,325.00
             349.00,325.00 349.00,255.00 349.00,255.00
             367.24,242.04 377.05,260.61 379.29,247.61
             380.18,242.48 375.93,232.39 371.88,229.99
             364.92,228.13 358.54,229.35 349.16,229.52
             349.16,229.52 349.00,210.00 349.00,210.00
             349.00,210.00 56.00,210.00 56.00,210.00 Z
           M 19.94,195.21M 27.36,288.41M 32.92,284.70" />
</symbol>

<symbol id="icon-alert-circle" viewBox="0 0 24 24">
<path d="M23 12c0-3.037-1.232-5.789-3.222-7.778s-4.741-3.222-7.778-3.222-5.789 1.232-7.778 3.222-3.222 4.741-3.222 7.778 1.232 5.789 3.222 7.778 4.741 3.222 7.778 3.222 5.789-1.232 7.778-3.222 3.222-4.741 3.222-7.778zM21 12c0 2.486-1.006 4.734-2.636 6.364s-3.878 2.636-6.364 2.636-4.734-1.006-6.364-2.636-2.636-3.878-2.636-6.364 1.006-4.734 2.636-6.364 3.878-2.636 6.364-2.636 4.734 1.006 6.364 2.636 2.636 3.878 2.636 6.364zM11 8v4c0 0.552 0.448 1 1 1s1-0.448 1-1v-4c0-0.552-0.448-1-1-1s-1 0.448-1 1zM12 17c0.552 0 1-0.448 1-1s-0.448-1-1-1-1 0.448-1 1 0.448 1 1 1z"></path>

<symbol id="add-friend" viewBox="0 0 640 512"><path fill="#418a5d" d="M224 256c70.7 0 128-57.31 128-128S294.7 0 224 0C153.3 0 96 57.31 96 128S153.3 256 224 256zM274.7 304H173.3C77.61 304 0 381.6 0 477.3C0 496.5 15.52 512 34.66 512h378.7C432.5 512 448 496.5 448 477.3C448 381.6 370.4 304 274.7 304zM616 200h-48v-48C568 138.8 557.3 128 544 128s-24 10.75-24 24v48h-48C458.8 200 448 210.8 448 224s10.75 24 24 24h48v48C520 309.3 530.8 320 544 320s24-10.75 24-24v-48h48C629.3 248 640 237.3 640 224S629.3 200 616 200z"></path></symbol>

</symbol>
<symbol id="icon-alert-triangle" viewBox="0 0 24 24">
<path d="M11.148 4.374c0.073-0.123 0.185-0.242 0.334-0.332 0.236-0.143 0.506-0.178 0.756-0.116s0.474 0.216 0.614 0.448l8.466 14.133c0.070 0.12 0.119 0.268 0.128 0.434-0.015 0.368-0.119 0.591-0.283 0.759-0.18 0.184-0.427 0.298-0.693 0.301l-16.937-0.001c-0.152-0.001-0.321-0.041-0.481-0.134-0.239-0.138-0.399-0.359-0.466-0.607s-0.038-0.519 0.092-0.745zM9.432 3.346l-8.47 14.14c-0.422 0.731-0.506 1.55-0.308 2.29s0.68 1.408 1.398 1.822c0.464 0.268 0.976 0.4 1.475 0.402h16.943c0.839-0.009 1.587-0.354 2.123-0.902s0.864-1.303 0.855-2.131c-0.006-0.536-0.153-1.044-0.406-1.474l-8.474-14.147c-0.432-0.713-1.11-1.181-1.854-1.363s-1.561-0.081-2.269 0.349c-0.429 0.26-0.775 0.615-1.012 1.014zM11 9v4c0 0.552 0.448 1 1 1s1-0.448 1-1v-4c0-0.552-0.448-1-1-1s-1 0.448-1 1zM12 18c0.552 0 1-0.448 1-1s-0.448-1-1-1-1 0.448-1 1 0.448 1 1 1z"></path>
</symbol>
<symbol id="icon-arrow-left" viewBox="0 0 24 24">
<path d="M12.707 18.293l-5.293-5.293h11.586c0.552 0 1-0.448 1-1s-0.448-1-1-1h-11.586l5.293-5.293c0.391-0.391 0.391-1.024 0-1.414s-1.024-0.391-1.414 0l-7 7c-0.096 0.096-0.168 0.206-0.217 0.324-0.051 0.122-0.076 0.253-0.076 0.383 0 0.256 0.098 0.512 0.293 0.707l7 7c0.391 0.391 1.024 0.391 1.414 0s0.391-1.024 0-1.414z"></path>
</symbol>
<symbol id="icon-arrow-right" viewBox="0 0 24 24">
<path d="M11.293 5.707l5.293 5.293h-11.586c-0.552 0-1 0.448-1 1s0.448 1 1 1h11.586l-5.293 5.293c-0.391 0.391-0.391 1.024 0 1.414s1.024 0.391 1.414 0l7-7c0.092-0.092 0.166-0.202 0.217-0.324 0.101-0.245 0.101-0.521 0-0.766-0.049-0.118-0.121-0.228-0.217-0.324l-7-7c-0.391-0.391-1.024-0.391-1.414 0s-0.391 1.024 0 1.414z"></path>
</symbol>
<symbol id="icon-bookmark" viewBox="0 0 24 24">
<path d="M18.419 21.814c0.161 0.116 0.363 0.186 0.581 0.186 0.552 0 1-0.448 1-1v-16c0-0.828-0.337-1.58-0.879-2.121s-1.293-0.879-2.121-0.879h-10c-0.828 0-1.58 0.337-2.121 0.879s-0.879 1.293-0.879 2.121v16c-0.001 0.199 0.060 0.404 0.186 0.581 0.321 0.449 0.946 0.554 1.395 0.232l6.419-4.584zM18 19.057l-5.419-3.871c-0.355-0.254-0.819-0.242-1.162 0l-5.419 3.871v-14.057c0-0.276 0.111-0.525 0.293-0.707s0.431-0.293 0.707-0.293h10c0.276 0 0.525 0.111 0.707 0.293s0.293 0.431 0.293 0.707z"></path>
</symbol>

<symbol id="icon-bookmark-fill" viewBox="0 0 24 24">
<polygon points="18.419 21.814, 19.000 22.000, 20.000 21.000, 20.000 5.000, 19.121 2.879, 17.000 2.000, 7.000 2.000, 4.879 2.879, 4.000 5.000, 4.000 21.000, 4.186 21.581, 5.581 21.813, 12.000 17.229" />
</symbol>

<symbol id="icon-check" viewBox="0 0 24 24">
<path d="M19.293 5.293l-10.293 10.293-4.293-4.293c-0.391-0.391-1.024-0.391-1.414 0s-0.391 1.024 0 1.414l5 5c0.391 0.391 1.024 0.391 1.414 0l11-11c0.391-0.391 0.391-1.024 0-1.414s-1.024-0.391-1.414 0z"></path>
</symbol>
<symbol id="icon-clock" viewBox="0 0 24 24">
<path d="M23 12c0-3.037-1.232-5.789-3.222-7.778s-4.741-3.222-7.778-3.222-5.789 1.232-7.778 3.222-3.222 4.741-3.222 7.778 1.232 5.789 3.222 7.778 4.741 3.222 7.778 3.222 5.789-1.232 7.778-3.222 3.222-4.741 3.222-7.778zM21 12c0 2.486-1.006 4.734-2.636 6.364s-3.878 2.636-6.364 2.636-4.734-1.006-6.364-2.636-2.636-3.878-2.636-6.364 1.006-4.734 2.636-6.364 3.878-2.636 6.364-2.636 4.734 1.006 6.364 2.636 2.636 3.878 2.636 6.364zM11 6v6c0 0.389 0.222 0.727 0.553 0.894l4 2c0.494 0.247 1.095 0.047 1.342-0.447s0.047-1.095-0.447-1.342l-3.448-1.723v-5.382c0-0.552-0.448-1-1-1s-1 0.448-1 1z"></path>
</symbol>
<symbol id="icon-edit" viewBox="0 0 24 24">
<path d="M11 3h-7c-0.828 0-1.58 0.337-2.121 0.879s-0.879 1.293-0.879 2.121v14c0 0.828 0.337 1.58 0.879 2.121s1.293 0.879 2.121 0.879h14c0.828 0 1.58-0.337 2.121-0.879s0.879-1.293 0.879-2.121v-7c0-0.552-0.448-1-1-1s-1 0.448-1 1v7c0 0.276-0.111 0.525-0.293 0.707s-0.431 0.293-0.707 0.293h-14c-0.276 0-0.525-0.111-0.707-0.293s-0.293-0.431-0.293-0.707v-14c0-0.276 0.111-0.525 0.293-0.707s0.431-0.293 0.707-0.293h7c0.552 0 1-0.448 1-1s-0.448-1-1-1zM17.793 1.793l-9.5 9.5c-0.122 0.121-0.217 0.28-0.263 0.465l-1 4c-0.039 0.15-0.042 0.318 0 0.485 0.134 0.536 0.677 0.862 1.213 0.728l4-1c0.167-0.041 0.33-0.129 0.465-0.263l9.5-9.5c0.609-0.609 0.914-1.41 0.914-2.207s-0.305-1.598-0.914-2.207-1.411-0.915-2.208-0.915-1.598 0.305-2.207 0.914zM19.207 3.207c0.219-0.219 0.504-0.328 0.793-0.328s0.574 0.109 0.793 0.328 0.328 0.504 0.328 0.793-0.109 0.574-0.328 0.793l-9.304 9.304-2.114 0.529 0.529-2.114z"></path>
</symbol>
<symbol id="icon-loader" viewBox="0 0 24 24">
<path d="M11 2v4c0 0.552 0.448 1 1 1s1-0.448 1-1v-4c0-0.552-0.448-1-1-1s-1 0.448-1 1zM11 18v4c0 0.552 0.448 1 1 1s1-0.448 1-1v-4c0-0.552-0.448-1-1-1s-1 0.448-1 1zM4.223 5.637l2.83 2.83c0.391 0.391 1.024 0.391 1.414 0s0.391-1.024 0-1.414l-2.83-2.83c-0.391-0.391-1.024-0.391-1.414 0s-0.391 1.024 0 1.414zM15.533 16.947l2.83 2.83c0.391 0.391 1.024 0.391 1.414 0s0.391-1.024 0-1.414l-2.83-2.83c-0.391-0.391-1.024-0.391-1.414 0s-0.391 1.024 0 1.414zM2 13h4c0.552 0 1-0.448 1-1s-0.448-1-1-1h-4c-0.552 0-1 0.448-1 1s0.448 1 1 1zM18 13h4c0.552 0 1-0.448 1-1s-0.448-1-1-1h-4c-0.552 0-1 0.448-1 1s0.448 1 1 1zM5.637 19.777l2.83-2.83c0.391-0.391 0.391-1.024 0-1.414s-1.024-0.391-1.414 0l-2.83 2.83c-0.391 0.391-0.391 1.024 0 1.414s1.024 0.391 1.414 0zM16.947 8.467l2.83-2.83c0.391-0.391 0.391-1.024 0-1.414s-1.024-0.391-1.414 0l-2.83 2.83c-0.391 0.391-0.391 1.024 0 1.414s1.024 0.391 1.414 0z"></path>
</symbol>
<symbol id="icon-minus-circle" viewBox="0 0 24 24">
<path d="M23 12c0-3.037-1.232-5.789-3.222-7.778s-4.741-3.222-7.778-3.222-5.789 1.232-7.778 3.222-3.222 4.741-3.222 7.778 1.232 5.789 3.222 7.778 4.741 3.222 7.778 3.222 5.789-1.232 7.778-3.222 3.222-4.741 3.222-7.778zM21 12c0 2.486-1.006 4.734-2.636 6.364s-3.878 2.636-6.364 2.636-4.734-1.006-6.364-2.636-2.636-3.878-2.636-6.364 1.006-4.734 2.636-6.364 3.878-2.636 6.364-2.636 4.734 1.006 6.364 2.636 2.636 3.878 2.636 6.364zM8 13h8c0.552 0 1-0.448 1-1s-0.448-1-1-1h-8c-0.552 0-1 0.448-1 1s0.448 1 1 1z"></path>
</symbol>
<symbol id="icon-plus-circle" viewBox="0 0 24 24">
<path d="M23 12c0-3.037-1.232-5.789-3.222-7.778s-4.741-3.222-7.778-3.222-5.789 1.232-7.778 3.222-3.222 4.741-3.222 7.778 1.232 5.789 3.222 7.778 4.741 3.222 7.778 3.222 5.789-1.232 7.778-3.222 3.222-4.741 3.222-7.778zM21 12c0 2.486-1.006 4.734-2.636 6.364s-3.878 2.636-6.364 2.636-4.734-1.006-6.364-2.636-2.636-3.878-2.636-6.364 1.006-4.734 2.636-6.364 3.878-2.636 6.364-2.636 4.734 1.006 6.364 2.636 2.636 3.878 2.636 6.364zM8 13h3v3c0 0.552 0.448 1 1 1s1-0.448 1-1v-3h3c0.552 0 1-0.448 1-1s-0.448-1-1-1h-3v-3c0-0.552-0.448-1-1-1s-1 0.448-1 1v3h-3c-0.552 0-1 0.448-1 1s0.448 1 1 1z"></path>
</symbol>
<symbol id="icon-search" viewBox="0 0 24 24">
<path d="M16.041 15.856c-0.034 0.026-0.067 0.055-0.099 0.087s-0.060 0.064-0.087 0.099c-1.258 1.213-2.969 1.958-4.855 1.958-1.933 0-3.682-0.782-4.95-2.050s-2.050-3.017-2.050-4.95 0.782-3.682 2.050-4.95 3.017-2.050 4.95-2.050 3.682 0.782 4.95 2.050 2.050 3.017 2.050 4.95c0 1.886-0.745 3.597-1.959 4.856zM21.707 20.293l-3.675-3.675c1.231-1.54 1.968-3.493 1.968-5.618 0-2.485-1.008-4.736-2.636-6.364s-3.879-2.636-6.364-2.636-4.736 1.008-6.364 2.636-2.636 3.879-2.636 6.364 1.008 4.736 2.636 6.364 3.879 2.636 6.364 2.636c2.125 0 4.078-0.737 5.618-1.968l3.675 3.675c0.391 0.391 1.024 0.391 1.414 0s0.391-1.024 0-1.414z"></path>
</symbol>
<symbol id="icon-send" viewBox="0 0 24 24">
<path d="M22.963 2.269c0.043-0.151 0.050-0.314 0.015-0.476-0.024-0.113-0.068-0.224-0.131-0.325-0.064-0.102-0.145-0.19-0.238-0.262-0.117-0.090-0.249-0.15-0.386-0.181s-0.282-0.034-0.426-0.004c-0.042 0.009-0.085 0.021-0.126 0.035l-0.021 0.007-19.98 6.993c-0.252 0.088-0.467 0.276-0.584 0.538-0.224 0.505 0.003 1.096 0.508 1.32l8.649 3.844 3.844 8.649c0.108 0.243 0.313 0.443 0.583 0.538 0.521 0.182 1.092-0.092 1.274-0.614l6.993-19.979c0.010-0.027 0.019-0.054 0.027-0.082zM10.779 11.807l-6.068-2.696 13.483-4.72zM19.609 5.806l-4.72 13.483-2.696-6.068z"></path>
</symbol>
<symbol id="icon-smile" viewBox="0 0 24 24">
<path d="M23 12c0-3.037-1.232-5.789-3.222-7.778s-4.741-3.222-7.778-3.222-5.789 1.232-7.778 3.222-3.222 4.741-3.222 7.778 1.232 5.789 3.222 7.778 4.741 3.222 7.778 3.222 5.789-1.232 7.778-3.222 3.222-4.741 3.222-7.778zM21 12c0 2.486-1.006 4.734-2.636 6.364s-3.878 2.636-6.364 2.636-4.734-1.006-6.364-2.636-2.636-3.878-2.636-6.364 1.006-4.734 2.636-6.364 3.878-2.636 6.364-2.636 4.734 1.006 6.364 2.636 2.636 3.878 2.636 6.364zM7.2 14.6c0 0 0.131 0.173 0.331 0.383 0.145 0.153 0.338 0.341 0.577 0.54 0.337 0.281 0.772 0.59 1.297 0.853 0.705 0.352 1.579 0.624 2.595 0.624s1.89-0.272 2.595-0.624c0.525-0.263 0.96-0.572 1.297-0.853 0.239-0.199 0.432-0.387 0.577-0.54 0.2-0.21 0.331-0.383 0.331-0.383 0.331-0.442 0.242-1.069-0.2-1.4s-1.069-0.242-1.4 0.2c-0.041 0.050-0.181 0.206-0.181 0.206-0.1 0.105-0.237 0.239-0.408 0.382-0.243 0.203-0.549 0.419-0.91 0.6-0.48 0.239-1.050 0.412-1.701 0.412s-1.221-0.173-1.701-0.413c-0.36-0.18-0.667-0.397-0.91-0.6-0.171-0.143-0.308-0.277-0.408-0.382-0.14-0.155-0.181-0.205-0.181-0.205-0.331-0.442-0.958-0.531-1.4-0.2s-0.531 0.958-0.2 1.4zM9 10c0.552 0 1-0.448 1-1s-0.448-1-1-1-1 0.448-1 1 0.448 1 1 1zM15 10c0.552 0 1-0.448 1-1s-0.448-1-1-1-1 0.448-1 1 0.448 1 1 1z"></path>
</symbol>
<symbol id="icon-user" viewBox="0 0 24 24">
<path d="M21 21v-2c0-1.38-0.561-2.632-1.464-3.536s-2.156-1.464-3.536-1.464h-8c-1.38 0-2.632 0.561-3.536 1.464s-1.464 2.156-1.464 3.536v2c0 0.552 0.448 1 1 1s1-0.448 1-1v-2c0-0.829 0.335-1.577 0.879-2.121s1.292-0.879 2.121-0.879h8c0.829 0 1.577 0.335 2.121 0.879s0.879 1.292 0.879 2.121v2c0 0.552 0.448 1 1 1s1-0.448 1-1zM17 7c0-1.38-0.561-2.632-1.464-3.536s-2.156-1.464-3.536-1.464-2.632 0.561-3.536 1.464-1.464 2.156-1.464 3.536 0.561 2.632 1.464 3.536 2.156 1.464 3.536 1.464 2.632-0.561 3.536-1.464 1.464-2.156 1.464-3.536zM15 7c0 0.829-0.335 1.577-0.879 2.121s-1.292 0.879-2.121 0.879-1.577-0.335-2.121-0.879-0.879-1.292-0.879-2.121 0.335-1.577 0.879-2.121 1.292-0.879 2.121-0.879 1.577 0.335 2.121 0.879 0.879 1.292 0.879 2.121z"></path>
</symbol>
<symbol id="icon-upload-cloud" viewBox="0 0 24 24">
<path d="M11 14.414v6.586c0 0.552 0.448 1 1 1s1-0.448 1-1v-6.586l2.293 2.293c0.391 0.391 1.024 0.391 1.414 0s0.391-1.024 0-1.414l-4-4c-0.092-0.092-0.202-0.166-0.324-0.217s-0.253-0.076-0.383-0.076c-0.256 0-0.512 0.098-0.707 0.293l-4 4c-0.391 0.391-0.391 1.024 0 1.414s1.024 0.391 1.414 0zM20.869 19.268c1.454-0.793 2.451-2.102 2.884-3.574s0.305-3.112-0.488-4.566c-0.679-1.245-1.737-2.155-2.959-2.663-0.724-0.301-1.505-0.46-2.299-0.465h-0.527c-0.725-2.057-2.144-3.708-3.917-4.752-1.983-1.168-4.415-1.581-6.821-0.959s-4.333 2.162-5.502 4.145-1.581 4.415-0.959 6.821c0.372 1.437 1.073 2.709 1.975 3.713 0.369 0.411 1.002 0.444 1.412 0.075s0.444-1.002 0.075-1.412c-0.688-0.765-1.235-1.75-1.526-2.877-0.484-1.872-0.164-3.761 0.746-5.305s2.407-2.74 4.279-3.224 3.761-0.164 5.305 0.746 2.74 2.407 3.224 4.279c0.116 0.435 0.506 0.75 0.969 0.75h1.253c0.536 0.004 1.061 0.111 1.545 0.312 0.815 0.339 1.517 0.943 1.97 1.773 0.529 0.97 0.615 2.061 0.325 3.044s-0.953 1.854-1.923 2.382c-0.485 0.264-0.664 0.872-0.399 1.357s0.872 0.664 1.357 0.399z"></path>
</symbol>
<symbol id="icon-users" viewBox="0 0 24 24">
<path d="M18 21v-2c0-1.38-0.561-2.632-1.464-3.536s-2.156-1.464-3.536-1.464h-8c-1.38 0-2.632 0.561-3.536 1.464s-1.464 2.156-1.464 3.536v2c0 0.552 0.448 1 1 1s1-0.448 1-1v-2c0-0.829 0.335-1.577 0.879-2.121s1.292-0.879 2.121-0.879h8c0.829 0 1.577 0.335 2.121 0.879s0.879 1.292 0.879 2.121v2c0 0.552 0.448 1 1 1s1-0.448 1-1zM14 7c0-1.38-0.561-2.632-1.464-3.536s-2.156-1.464-3.536-1.464-2.632 0.561-3.536 1.464-1.464 2.156-1.464 3.536 0.561 2.632 1.464 3.536 2.156 1.464 3.536 1.464 2.632-0.561 3.536-1.464 1.464-2.156 1.464-3.536zM12 7c0 0.829-0.335 1.577-0.879 2.121s-1.292 0.879-2.121 0.879-1.577-0.335-2.121-0.879-0.879-1.292-0.879-2.121 0.335-1.577 0.879-2.121 1.292-0.879 2.121-0.879 1.577 0.335 2.121 0.879 0.879 1.292 0.879 2.121zM24 21v-2c-0.001-1.245-0.457-2.385-1.215-3.261-0.652-0.753-1.528-1.311-2.529-1.576-0.534-0.141-1.081 0.177-1.222 0.711s0.177 1.081 0.711 1.222c0.607 0.161 1.136 0.498 1.528 0.952 0.454 0.526 0.726 1.206 0.727 1.952v2c0 0.552 0.448 1 1 1s1-0.448 1-1zM15.752 4.099c0.803 0.206 1.445 0.715 1.837 1.377s0.531 1.47 0.325 2.273c-0.176 0.688-0.575 1.256-1.105 1.652-0.314 0.235-0.675 0.409-1.063 0.511-0.534 0.14-0.854 0.687-0.713 1.221s0.687 0.854 1.221 0.713c0.637-0.167 1.232-0.455 1.752-0.844 0.884-0.66 1.552-1.613 1.845-2.758 0.342-1.337 0.11-2.689-0.542-3.788s-1.725-1.953-3.062-2.296c-0.535-0.137-1.080 0.186-1.217 0.721s0.186 1.080 0.721 1.217z"></path>
</symbol>
<symbol id="heart" viewBox="0 0 24 24">
<path d="M12 4.419c-2.826-5.695-11.999-4.064-11.999 3.27 0 7.27 9.903 10.938 11.999 15.311 2.096-4.373 12-8.041 12-15.311 0-7.327-9.17-8.972-12-3.27z"></path>
</symbol>
</defs>
</svg>
